<?xml version="1.0" standalone="no"?>
<!DOCTYPE svg PUBLIC "-//W3C//DTD SVG 20010904//EN"
 "http://www.w3.org/TR/2001/REC-SVG-20010904/DTD/svg10.dtd">
<svg version="1.0" xmlns="http://www.w3.org/2000/svg"
 width="150.000000pt" height="170.000000pt" viewBox="0 0 150.000000 170.000000"
 preserveAspectRatio="xMidYMid meet">

<g transform="translate(0.000000,170.000000) scale(0.100000,-0.100000)"
fill="#000000" stroke="none">
<path d="M694 1689 c-43 -12 -81 -54 -101 -110 -16 -43 -20 -48 -56 -53 -21
-4 -49 -13 -62 -22 -33 -22 -65 -92 -65 -145 0 -42 -3 -45 -48 -72 -96 -57
-179 -153 -230 -264 -33 -72 -72 -228 -72 -291 0 -18 -12 -61 -27 -95 -41 -95
-38 -170 11 -267 134 -261 496 -411 855 -354 255 41 461 176 553 361 51 102
54 148 14 243 -15 36 -31 100 -36 145 -22 186 -84 327 -190 435 -67 68 -176
133 -246 146 -33 6 -34 8 -65 108 -48 156 -78 204 -142 231 -40 17 -49 17 -93
4z m106 -76 c31 -32 44 -60 79 -170 l42 -131 37 -7 c50 -9 164 -67 220 -113
101 -82 182 -255 202 -432 6 -52 21 -116 41 -165 36 -91 33 -113 -26 -220 -93
-166 -298 -285 -549 -316 -316 -39 -645 107 -757 336 -42 87 -44 135 -6 228
15 37 27 82 27 100 0 66 39 219 75 292 45 94 133 191 214 233 l59 32 4 71 c3
65 6 74 36 100 36 32 67 37 99 14 25 -18 30 -12 31 33 1 47 19 96 45 119 47
44 80 42 127 -4z"/>
<path d="M718 1567 c-17 -14 -37 -88 -34 -129 1 -22 6 -28 24 -28 24 0 28 -10
10 -28 -8 -8 -9 -12 -1 -12 6 0 19 -3 29 -7 14 -5 16 -3 11 11 -4 10 -3 15 3
11 6 -3 10 -16 11 -28 1 -20 2 -20 9 3 l8 25 1 -24 c1 -20 3 -21 16 -11 19 16
20 74 1 89 -9 8 -13 26 -10 50 3 30 -2 42 -19 58 -36 31 -43 33 -59 20z"/>
<path d="M540 1364 c-15 -39 -12 -55 11 -61 16 -5 20 -12 16 -31 l-5 -26 19
25 c18 23 18 24 -1 33 -11 5 -20 12 -20 16 0 13 34 22 38 11 6 -17 42 11 42
32 0 10 -4 16 -9 12 -5 -3 -12 -1 -16 5 -3 5 -20 10 -36 10 -22 0 -32 -6 -39
-26z"/>
<path d="M866 1255 c4 -8 11 -15 16 -15 6 0 5 6 -2 15 -7 8 -14 15 -16 15 -2
0 -1 -7 2 -15z"/>
<path d="M546 1231 c-4 -7 -5 -15 -2 -18 9 -9 19 4 14 18 -4 11 -6 11 -12 0z"/>
<path d="M1013 1195 c13 -13 17 -27 13 -47 -5 -24 -3 -29 12 -26 11 2 16 11
14 26 -2 13 2 29 8 37 9 11 8 14 -7 13 -10 0 -27 3 -38 8 -19 8 -19 7 -2 -11z"/>
<path d="M960 1192 c0 -11 41 -34 48 -27 4 4 -2 13 -12 21 -22 15 -36 18 -36
6z"/>
<path d="M1071 1158 c12 -24 79 -90 79 -79 0 3 5 -1 11 -9 8 -12 9 -10 7 10
-2 18 -15 31 -43 46 -22 11 -41 28 -43 37 -2 9 -8 17 -13 17 -6 0 -5 -10 2
-22z"/>
<path d="M367 1129 c-26 -29 -34 -49 -19 -49 4 0 13 9 20 20 7 11 19 20 26 20
21 0 26 13 12 26 -9 9 -19 4 -39 -17z"/>
<path d="M316 1081 c-9 -14 4 -41 20 -41 8 0 14 5 14 11 0 16 -28 40 -34 30z"/>
<path d="M288 1039 c-2 -17 -30 -44 -44 -44 -1 0 -5 -11 -9 -24 -6 -21 -2 -19
25 12 18 20 38 37 46 37 16 0 16 2 8 24 -9 23 -22 20 -26 -5z"/>
<path d="M1140 1045 c0 -8 4 -15 10 -15 5 0 7 7 4 15 -4 8 -8 15 -10 15 -2 0
-4 -7 -4 -15z"/>
<path d="M1180 1032 c0 -7 -6 -12 -14 -12 -9 0 -12 -7 -9 -20 3 -11 10 -20 15
-20 5 0 6 -6 2 -12 -6 -9 -3 -9 9 0 14 12 17 10 23 -12 4 -18 13 -26 28 -26
21 0 22 2 12 45 -7 30 -16 45 -26 45 -9 0 -21 5 -28 12 -9 9 -12 9 -12 0z"/>
<path d="M350 1021 c0 -6 4 -13 10 -16 6 -3 7 1 4 9 -7 18 -14 21 -14 7z"/>
<path d="M253 960 c-36 -33 -41 -53 -18 -76 13 -14 17 -14 30 0 8 8 15 21 15
29 0 8 7 18 16 21 12 5 14 1 8 -17 -3 -12 -5 -20 -3 -17 2 3 13 15 24 28 15
18 16 22 3 17 -11 -4 -18 0 -21 12 -4 16 -5 16 -6 1 0 -10 -6 -18 -11 -18 -6
0 -8 11 -4 25 8 31 6 31 -33 -5z"/>
<path d="M1154 941 c16 -17 33 -28 38 -25 12 7 0 24 -18 24 -8 0 -14 4 -14 9
0 5 -8 12 -17 16 -12 4 -7 -5 11 -24z"/>
<path d="M1228 913 c-10 -2 -15 -10 -11 -19 6 -17 24 -19 21 -2 -2 6 8 15 22
19 19 5 20 7 5 7 -11 0 -28 -2 -37 -5z"/>
<path d="M1274 892 c4 -7 2 -12 -3 -12 -6 0 -11 -4 -11 -10 0 -5 7 -10 15 -10
18 0 20 26 3 36 -7 4 -8 3 -4 -4z"/>
<path d="M1223 840 c6 -16 17 -30 24 -30 7 0 13 -9 13 -20 0 -11 -4 -20 -10
-20 -5 0 -10 -5 -10 -11 0 -8 4 -8 15 1 8 6 19 9 25 5 5 -3 14 -4 19 0 11 6
-11 66 -25 67 -5 0 -21 9 -36 19 l-26 19 11 -30z"/>
<path d="M213 820 c4 -30 2 -40 -9 -40 -16 0 -19 -36 -5 -45 14 -8 21 8 26 69
4 39 2 56 -6 56 -8 0 -10 -13 -6 -40z"/>
<path d="M249 837 c-12 -17 -14 -25 -5 -33 9 -8 15 -2 23 22 12 39 5 43 -18
11z"/>
<path d="M442 847 c-43 -51 -57 -200 -26 -275 31 -79 89 -77 119 3 24 61 17
197 -11 246 -22 37 -62 50 -82 26z m60 -24 c20 -18 25 -82 8 -114 -27 -50 -87
3 -77 67 10 61 35 78 69 47z"/>
<path d="M975 836 c-50 -75 -46 -249 6 -305 31 -33 60 -24 87 29 21 40 23 56
20 142 -3 79 -8 103 -24 125 -28 38 -68 42 -89 9z m69 -18 c30 -42 10 -128
-29 -128 -21 0 -45 40 -45 75 0 35 24 75 45 75 8 0 21 -10 29 -22z"/>
<path d="M236 740 c-4 -26 -11 -40 -21 -40 -8 0 -15 -7 -15 -15 0 -8 8 -15 19
-15 15 0 20 10 25 51 8 61 1 77 -8 19z"/>
<path d="M1273 713 c-1 -24 2 -32 8 -22 11 18 12 59 1 59 -4 0 -9 -16 -9 -37z"/>
<path d="M1252 695 c0 -16 2 -22 5 -12 2 9 2 23 0 30 -3 6 -5 -1 -5 -18z"/>
<path d="M572 690 c0 -14 2 -19 5 -12 2 6 2 18 0 25 -3 6 -5 1 -5 -13z"/>
<path d="M1305 670 c-3 -5 -3 -14 0 -20 3 -5 0 -10 -9 -10 -8 0 -17 6 -19 13
-3 7 -6 5 -6 -5 -1 -13 7 -18 24 -18 20 0 25 5 25 25 0 27 -5 31 -15 15z"/>
<path d="M192 644 c-11 -12 -8 -14 18 -14 22 0 30 5 30 18 0 14 -2 15 -10 2
-7 -11 -12 -12 -17 -4 -6 9 -12 8 -21 -2z"/>
<path d="M200 536 c0 -32 131 -115 187 -119 63 -5 21 57 -69 102 -66 33 -118
41 -118 17z"/>
<path d="M1184 525 c-58 -29 -120 -88 -109 -105 21 -35 215 69 215 116 0 22
-50 17 -106 -11z"/>
<path d="M654 499 c-66 -19 -67 -58 -3 -83 101 -40 256 -2 233 58 -12 32 -154
47 -230 25z m47 -19 c6 0 7 -4 4 -10 -8 -13 -65 -13 -65 -1 0 12 21 21 38 15
8 -2 18 -4 23 -4z"/>
<path d="M166 442 c-18 -30 50 -83 145 -113 65 -20 89 -19 89 4 0 47 -211 145
-234 109z"/>
<path d="M1217 426 c-118 -49 -167 -114 -82 -109 45 3 152 52 179 82 23 25 14
51 -16 51 -13 0 -49 -11 -81 -24z"/>
<path d="M704 319 c-21 -22 -60 -54 -86 -71 -27 -16 -45 -34 -42 -39 7 -12 62
21 127 74 l48 40 37 -35 c39 -37 111 -88 124 -88 19 0 4 20 -34 45 -23 15 -63
47 -88 71 l-46 43 -40 -40z"/>
</g>
</svg>
